<svg xmlns="http://www.w3.org/2000/svg" width="130" height="100" viewBox="0 20 160 100">
    <g fill="none" fill-rule="evenodd">
        <path d="M0 0h100v100H0z"/>
        <path fill="#FFF" d="M49.968 53.587c-.144-3.345-.434-6.773-.968-9.712-1.12-6.162-3.316-10.172-4.752-12.26 1.933-3.91.89-11.609-5.748-14.887-7.875-3.888-24.5 0-24.5 0s0 11.862 7.875 17.5c7.875 5.64 17.5-.486 17.5-.486l-13.125-8.75s12.25 1.75 16.625 8.361v.022s4.375 5.25 4.375 14.875c0 6.236-.367 12.839-.626 16.716C34.438 65.9 24.25 73.968 20.222 85h57.556C73.602 73.56 62.8 65.309 50.018 64.892c.056-1.925.1-4.495.061-7.313.43-1.096.942-2.197 1.546-3.204C54.25 50 57.75 50 57.75 50c6.015-3.404 15.7.32 15.7.32l-13.658 1.602s5.052 8.567 13.4 7.304c8.349-1.263 13.043-10.477 13.043-10.477s-11.374-9.6-19.03-9.696c-4.746-.06-7.886 2.845-9.188 5.877-1.753 1.3-4.65 3.623-6.392 5.945a17.76 17.76 0 0 0-1.657 2.712z"/>
    </g>
</svg>
