<svg xmlns="http://www.w3.org/2000/svg" width="100" height="100" viewBox="0 15 100 100">
    <g fill="none" fill-rule="evenodd">
        <path d="M0 0h100v100H0z"/>
        <path fill="#FFF" d="M67.564 57.512C73.599 55.847 78 50.662 78 44.522c0-6.74-5.304-12.33-12.252-13.376C64.991 24.322 58.774 19 51.218 19c-7.492 0-13.667 5.231-14.511 11.97h-.098C28.54 30.97 22 37.039 22 44.523c0 4.668 2.545 8.785 6.418 11.222 1.425-.572 10.995-4.273 15.495-2.185 0-4.518 7.304-9.035 7.304-9.035s4.852 4.517 4.843 8.936c5.067-.432 9.776 2.73 11.504 4.052zM56.003 79.776c1.103 1.228 1.27 1.086.446-.346 0 0-7.449-10.43-.362-15.5 2.435 0 9.74-4.517 9.74-4.517s-6.494-5.162-12.201-2.358c.008-4.419-2.409-8.936-2.409-8.936s-4.87 4.517-4.87 9.035c-4.869-2.259-12.173 0-12.173 0s8.522 6.324 12.174 6.776c.54 6.325 9.655 15.846 9.655 15.846z"/>
    </g>
</svg>
