<svg xmlns="http://www.w3.org/2000/svg" width="100" height="100" viewBox="0 15 100 100">
    <g fill="none" fill-rule="evenodd">
        <path d="M0 0h100v100H0z"/>
        <path fill="#FFF" d="M56.075 39.714c2.087-.589 3.61-2.421 3.61-4.59 0-2.382-1.835-4.357-4.238-4.727-.262-2.411-2.412-4.292-5.026-4.292-2.591 0-4.727 1.849-5.019 4.23h-.034c-2.79 0-5.052 2.144-5.052 4.789 0 1.65.88 3.104 2.22 3.965.492-.202 3.802-1.51 5.359-.772 0-1.596 2.526-3.193 2.526-3.193s1.678 1.597 1.675 3.158c1.752-.153 3.381.964 3.979 1.432zM50 85.211S73 52.526 73 38c0-14.526-10.297-23-23-23s-23 8.474-23 23 23 47.21 23 47.21zm0-31.474c9.36 0 16.947-7.588 16.947-16.948S59.36 19.842 50 19.842 33.053 27.43 33.053 36.79c0 9.36 7.587 16.948 16.947 16.948zm2.105-4.37s-2.105-4.15 0-6.385c.842 0 3.369-1.597 3.369-1.597s-2.246-1.823-4.22-.832c.003-1.562-.833-3.158-.833-3.158s-1.684 1.596-1.684 3.192c-1.684-.798-4.21 0-4.21 0s2.947 2.235 4.21 2.395c.187 2.235 3.368 6.385 3.368 6.385z"/>
    </g>
</svg>
