<svg xmlns="http://www.w3.org/2000/svg" width="160" height="120" viewBox="0 50 160 100">
    <g fill="none" fill-rule="evenodd">
        <path d="M0 0h100v100H0z"/>
        <path fill="#FFF" d="M16 58.003c0-.554.45-1.003.995-1.003h16.008c1.103 0 2.102.893 2.294 1.976C35.297 58.976 36 72 50 72s14.703-13.024 14.703-13.024C64.867 57.885 65.891 57 66.997 57h16.008A1 1 0 0 1 84 58.003v23.994C84 82.55 83.548 83 83 83H17c-.552 0-1-.451-1-1.003V58.003zm32.758 4.063c1.261-.562 1.839-2.017 1.29-3.25-.55-1.233-4.622-7.308-5.764-6.8-1.142.51.647 7.6 1.196 8.834.549 1.233 2.017 1.777 3.278 1.216zm-.089-19.673c1.35.287 2.673-.55 2.954-1.87.28-1.321.556-8.63-.667-8.89-1.222-.26-3.943 6.529-4.224 7.85-.28 1.32.587 2.623 1.937 2.91zm5.515 11.203c1.088.85 2.643.677 3.475-.387.83-1.064 4.282-7.511 3.297-8.281-.985-.77-6.406 4.139-7.237 5.203-.832 1.064-.623 2.615.465 3.465z"/>
    </g>
</svg>
